<?xml version="1.0" encoding="UTF-8"?>
<svg width="552px" height="346px" viewBox="0 0 552 346" version="1.1" xmlns="http://www.w3.org/2000/svg" xmlns:xlink="http://www.w3.org/1999/xlink">
    <!-- Generator: Sketch 59.1 (86144) - https://sketch.com -->
    <title>states</title>
    <desc>Created with Sketch.</desc>
    <g id="v4-2020" stroke="none" stroke-width="1" fill="none" fill-rule="evenodd">
        <g id="About" transform="translate(-236.000000, -825.000000)">
            <g id="states" transform="translate(236.000000, 825.000000)">
                <g id="Group">
                    <polygon id="AL" fill="#21272F" fill-rule="nonzero" points="371.126768 277.977358 371.489119 278.098113 372.274211 276.467925 373.180087 273.811321 374.569097 274.173585 376.44124 277.796226 376.44124 278.4 374.810664 279.54717 376.44124 279.728302 379.58161 278.218868 379.400435 273.630189 377.890642 272.543396 376.682807 271.335849 376.924374 268.920755 383.265506 268.015094 398.786181 266.264151 402.832427 265.901887 406.214363 265.962264 405.912405 264.633962 405.006529 264.150943 404.463003 263.486792 405.066921 261.916981 404.825354 258.777358 403.859086 256.060377 404.34222 252.981132 405.368879 250.083019 405.248096 249.056604 404.161045 248.633962 403.859086 246.460377 402.228509 244.407547 401.020675 240.483019 400.17519 236.437736 399.088139 233.418868 396.793254 223.758491 394.679543 218.988679 394.196409 215.607547 394.256801 214.279245 388.821545 214.762264 374.68988 216.090566 367.322089 216.573585 367.201306 220.437736 367.322089 230.520755 366.899347 249.237736 366.718172 257.750943 368.40914 269.101887 369.375408 277.977358"></polygon>
                    <polygon id="AR" fill="#21272F" fill-rule="nonzero" points="346.245375 205.343396 342.380305 204.920755 342.92383 203.049057 344.795974 201.479245 345.158324 200.090566 344.071273 198.339623 324.806311 199.064151 310.735038 199.486792 296.48259 199.667925 297.388466 203.833962 297.448857 208.966038 298.294342 215.54717 298.475517 238.611321 299.743743 239.577358 301.555495 238.85283 303.306855 239.577358 303.548422 245.675472 318.767138 245.554717 334.952122 245.071698 335.495647 243.924528 335.314472 241.630189 334.287813 239.758491 335.193689 238.913208 334.348205 237.584906 334.770947 236.135849 335.435256 232.573585 337.065832 231.184906 336.582699 229.856604 338.998368 226.475472 340.508161 225.811321 340.447769 224.784906 340.145811 223.758491 341.897171 220.256604 343.406964 219.592453 343.527748 217.6 344.795974 216.754717 345.339499 214.279245 344.494015 211.864151 347.030468 210.415094 347.211643 209.14717 347.936344 206.611321 348.479869 204.739623"></polygon>
                    <polygon id="AZ" fill="#21272F" fill-rule="nonzero" points="73.1539717 231.667925 72.9727965 232.573585 73.2747552 233.177358 84.6887922 239.637736 91.9961915 244.226415 100.873776 249.418868 111.019587 255.456604 118.447769 256.90566 133.787269 258.535849 137.410773 234.626415 141.638194 202.566038 144.29543 183.849057 129.439064 181.675472 92.781284 175.033962 92.6605005 175.698113 91.0903156 185.660377 89.8220892 187.954717 88.1311208 187.833962 87.40642 186.264151 85.836235 186.022642 85.1115343 185.358491 84.4472252 185.418868 83.1789989 186.445283 82.9978237 190.550943 82.8166485 191.456604 82.5146899 199.003774 81.6088139 200.45283 81.367247 202.445283 83.0582155 205.464151 83.7225245 208.784906 84.1452666 209.449057 84.8095756 209.992453 84.5680087 211.441509 83.5413493 212.166038 81.4880305 213.132075 80.5217628 214.218868 79.5554951 216.392453 79.2535365 219.350943 77.4417845 221.101887 76.2943417 221.645283 76.2339499 225.14717 75.8715996 226.113208 76.1735582 226.596226 78.5288357 226.837736 77.9853101 228.649057 76.9586507 230.098113 74.7241567 230.339623"></polygon>
                    <path d="M65.6653972,229.373585 L53.7682263,227.743396 L47.7290533,226.837736 L47.4270947,225.750943 L47.4270947,220.075472 L47.2459195,218.143396 L45.6757345,215.607547 L45.1926007,214.218868 L42.8373232,211.683019 L41.085963,208.845283 L39.4553863,208.724528 L37.5228509,208.241509 L37.3416757,207.637736 L38.2475517,207.275472 L37.8852013,205.343396 L36.9793254,204.075472 L34.0805223,203.592453 L31.7252448,202.324528 L31.0609358,200.935849 L29.4907508,198.037736 L27.7393906,196.166038 L25.9880305,196.166038 L23.632753,194.898113 L20.9151251,193.811321 L18.3786725,193.509434 L16.9292709,191.879245 L17.2312296,190.732075 L18.3182807,186.445283 L18.8014146,185.298113 L18.8014146,183.849057 L17.8351469,183.245283 L17.5331882,181.49434 L16.6273123,179.924528 L14.5739935,176.422642 L13.788901,174.550943 L12.883025,171.713208 L11.9167573,168.513208 L9.98422198,165.856604 L9.68226333,164.10566 L10.1653972,161.750943 L10.8297062,161.750943 L12.0979325,160.784906 L12.7622416,158.611321 L12.1583243,156.981132 L10.5277476,156.679245 L9.38030468,155.109434 L8.11207835,152.875472 L7.99129489,147.924528 L8.35364527,146.777358 L8.71599565,145.388679 L9.0179543,143.939623 L5.57562568,140.135849 L5.57562568,138.867925 L5.75680087,138.566038 L5.93797606,136.633962 L5.15288357,134.218868 L3.76387378,131.320755 L2.13329706,128.603774 L1.04624592,126.249057 L1.65016322,124.015094 L2.0125136,120.513208 L3.09956474,118.641509 L3.28073993,114.716981 L2.6164309,112.543396 L1.65016322,110.007547 L0.0195865071,107.471698 L0.502720348,105.539623 L1.4085963,103.003774 L2.49564744,102.520755 L2.67682263,101.856604 L4.54896627,100.286792 L7.68933624,93.1622642 L7.8101197,88.6943396 L8.83073993,85.7358491 L32.1963003,92.8603774 L47.6565832,96.845283 L42.8252448,115.743396 L37.5892818,135.728302 L45.2167573,147.320755 L70.6779108,184.935849 L81.0048966,200.69434 L80.7633297,202.566038 L82.4542982,205.70566 L83.1186072,208.966038 L83.7225245,209.871698 L84.1452666,210.233962 L84.0244831,211.079245 L83.1789989,211.683019 L81.1256801,212.649057 L79.9782372,213.916981 L78.9515778,216.271698 L78.6496192,219.109434 L77.0794342,220.618868 L75.6904244,221.283019 L75.6300326,225.026415 L75.2676823,226.173585 L75.8715996,227.2 L77.6833515,227.381132 L77.4417845,228.34717 L76.5963003,229.554717 L74.2410229,229.916981 L65.6653972,229.373585 Z M21.0359086,199.849057 L21.8210011,200.754717 L21.7002176,201.539623 L19.7676823,201.479245 L19.4053319,200.754717 L19.0429815,199.849057 L21.0359086,199.849057 Z M22.1833515,199.849057 L22.9080522,199.486792 L25.0821545,200.754717 L26.9542982,201.479245 L26.4107726,201.841509 L23.6931447,201.720755 L22.726877,200.754717 L22.1833515,199.849057 Z M34.6844396,211.803774 L35.7714908,213.192453 L36.2546246,213.796226 L37.1605005,214.158491 L37.5228509,213.25283 L36.9189336,212.166038 L35.2883569,210.958491 L34.6240479,211.079245 L34.6240479,211.803774 L34.6844396,211.803774 Z M33.8389554,217.056604 L34.9260065,218.988679 L35.6507073,220.135849 L34.7448313,220.256604 L33.9597388,219.532075 C33.9597388,219.532075 33.5369967,218.626415 33.5369967,218.384906 L33.5369967,217.056604 L33.8389554,217.056604 Z" id="CA" fill="#21272F" fill-rule="nonzero"></path>
                    <polygon id="CO" fill="#21272F" fill-rule="nonzero" points="221.174102 138.566038 199.433079 136.45283 151.663221 131.260377 150.334603 144.603774 146.107182 175.033962 144.959739 183.30566 165.492927 185.660377 188.139826 188.316981 209.095756 190.128302 217.731774 190.490566"></polygon>
                    <polygon id="CT" fill="#21272F" fill-rule="nonzero" points="506.102285 111.637736 508.276387 109.70566 509.42383 108.437736 509.906964 108.8 511.537541 107.89434 514.677911 107.230189 518.905332 105.116981 518.542982 102.581132 518.059848 99.9245283 517.09358 96.3018868 514.496736 96.9660377 501.331338 99.8037736 501.693689 101.675472 502.599565 106.083019 502.599565 111.09434 502.056039 112.362264 503.082699 113.690566"></polygon>
                    <polygon id="DE" fill="#21272F" fill-rule="nonzero" points="495.473341 145.630189 494.869423 145.932075 492.695321 144.483019 491.60827 141.645283 490.460827 139.471698 489.071817 138.867925 487.803591 136.69434 488.10555 135.486792 488.407508 134.098113 488.4679 133.433962 488.10555 133.49434 487.07889 134.098113 485.871055 135.124528 485.750272 135.30566 486.595756 137.781132 487.984766 141.162264 490.21926 150.883019 493.238847 150.701887 496.86235 150.037736"></polygon>
                    <path d="M444.623504,265.177358 L441.483134,264.754717 L441.060392,265.237736 L441.966268,267.89434 L441.724701,271.033962 L439.24864,270.430189 L439.127856,268.739623 L436.651795,268.739623 L433.451034,269.162264 L413.884113,270.309434 L408.931991,270.128302 L407.905332,269.101887 L406.395539,266.566038 L402.832427,266.566038 L398.846572,266.867925 L377.4679,269.403774 L377.286725,271.09434 L378.252992,272.060377 L380.004353,273.267925 L380.185528,278.339623 L382.178455,277.977358 L385.801959,276.709434 L389.425462,276.407547 L392.082699,276.045283 L396.67247,277.132075 L401.5642,279.486792 L402.530468,280.392453 L404.281828,281.056604 L405.248096,282.203774 L405.429271,283.833962 L407.361806,283.049057 L409.717084,283.049057 L411.891186,281.901887 L414.12568,279.728302 L415.997824,279.849057 L416.299782,279.184906 L415.816649,278.581132 L415.937432,277.433962 L418.353101,276.950943 L419.923286,276.950943 L421.674646,277.856604 L424.211099,278.762264 L425.660501,280.996226 L427.291077,281.6 L427.955386,283.65283 L430.008705,284.618868 L430.974973,286.188679 L432.122416,286.550943 L435.262786,287.335849 L436.047878,289.207547 L437.85963,291.441509 L437.85963,297.177358 L436.953754,300.015094 L437.134929,301.645283 L437.920022,304.543396 L439.007073,306.958491 L439.490207,306.656604 L440.396083,303.939623 L438.825898,303.335849 L438.644723,302.973585 L439.61099,302.611321 L442.328618,303.215094 L442.449402,304.181132 L440.516866,307.501887 L439.24864,308.950943 L441.422742,311.184906 L442.992927,313.056604 L444.744287,316.256604 L446.495647,318.611321 L447.763874,321.630189 L448.850925,321.811321 L449.817193,320.543396 L450.904244,321.207547 L452.474429,323.622642 L452.836779,325.796226 L454.708923,328.45283 L455.192057,327.667925 L457.547334,327.849057 L459.721436,329.237736 L461.774755,332.377358 L462.257889,334.430189 L462.439064,336.181132 L463.103373,336.784906 L463.888466,337.086792 L465.337867,336.483019 L466.243743,335.516981 L468.599021,335.396226 L470.471164,334.490566 L472.101741,332.558491 L471.799782,331.411321 L471.618607,329.962264 L471.980958,328.815094 L471.799782,327.667925 L473.249184,326.883019 L473.430359,324.830189 L473.068009,323.743396 L472.76605,316.498113 L471.980958,311.909434 L469.26333,306.958491 L467.089227,303.456604 L465.519042,300.256604 L463.767682,298.50566 L462.016322,294.037736 L462.439064,293.192453 L463.103373,292.407547 L462.137106,290.656604 L459.721436,288.422642 L456.822633,285.101887 L454.588139,281.298113 L451.387378,275.622642 L449.152884,269.766038 L447.763874,265.358491 L444.623504,265.177358 Z M455.31284,345.298113 L456.762242,344.935849 L457.547334,344.815094 L458.45321,343.426415 L459.84222,342.460377 L460.627312,342.762264 L461.653972,342.943396 L461.895539,343.607547 L459.781828,344.332075 L457.245375,345.237736 L455.856366,345.962264 L455.31284,345.298113 Z M463.465724,342.279245 L464.190424,342.943396 L465.821001,341.675472 L469.021763,339.139623 L471.256257,336.784906 L472.76605,332.8 L473.369967,331.773585 L473.490751,329.720755 L473.068009,330.022642 L472.464091,331.713208 L471.558215,334.490566 L469.62568,337.690566 L466.968444,340.226415 L464.915125,341.373585 L463.465724,342.279245 Z" id="FL" fill="#21272F" fill-rule="nonzero"></path>
                    <polygon id="GA" fill="#21272F" fill-rule="nonzero" points="444.623504 264.573585 441.241567 264.150943 440.396083 265.116981 441.36235 267.954717 441.181175 270.309434 439.852557 269.94717 439.731774 268.135849 436.591404 268.135849 433.390642 268.558491 413.884113 269.70566 409.23395 269.524528 408.388466 268.8 406.878672 266.203774 406.395539 264.211321 405.429271 263.667925 405.127312 263.366038 405.670838 262.037736 405.429271 258.716981 404.463003 256 404.946137 253.041509 405.972797 250.143396 405.852013 248.633962 404.70457 248.211321 404.463003 246.279245 402.772035 244.166038 401.624592 240.422642 400.718716 236.196226 399.692057 233.298113 397.397171 223.637736 395.28346 218.807547 394.800326 215.607547 394.860718 214.218868 396.853645 214.037736 405.066921 213.071698 416.299782 211.864151 420.104461 211.2 420.40642 212.045283 419.077802 212.588679 418.534276 213.916981 418.775843 215.124528 419.621328 216.090566 422.218172 217.720755 424.150707 217.660377 426.083243 220.498113 426.445593 221.464151 427.834603 223.154717 428.136561 224.181132 430.974973 225.267925 432.786725 226.596226 434.175734 228.407547 435.564744 229.192453 436.772579 230.279245 437.618063 231.909434 438.886289 233.056604 441.36235 234.143396 442.992927 237.766038 444.019587 240.845283 445.710555 241.267925 446.978781 242.415094 448.186616 245.856604 449.937976 246.822642 450.964635 246.339623 451.206202 247.064151 449.213275 250.807547 449.515234 252.377358 448.609358 254.913208 447.220348 260.950943 447.703482 264.754717"></polygon>
                    <polygon id="IA" fill="#21272F" fill-rule="nonzero" points="327.825898 107.230189 329.094124 108.498113 329.275299 108.920755 328.067465 110.732075 328.24864 113.14717 329.818825 115.622642 331.690968 116.588679 333.14037 116.769811 333.683896 117.856604 333.804679 119.30566 335.314472 119.909434 335.857998 120.573585 336.159956 121.539623 338.454842 123.532075 338.817193 124.679245 338.39445 126.490566 337.367791 128.724528 337.005441 130.173585 335.737214 131.139623 334.770947 131.441509 331.328618 132.34717 330.36235 135.245283 330.845484 136.332075 331.872144 137.237736 331.75136 139.350943 330.603917 140.196226 330.181175 141.283019 330.181175 142.732075 329.335691 142.973585 328.309032 143.818868 328.007073 144.845283 328.24864 145.871698 327.463547 146.475472 326.074538 144.845283 325.229053 143.154717 320.21654 143.637736 314.177367 144 284.464635 144.724528 283.498368 142.128302 283.256801 138.083019 282.411317 135.54717 281.988575 132.407547 280.659956 130.173585 280.056039 127.396226 278.425462 122.686792 277.761153 119.30566 276.915669 118.158491 276.130577 116.407547 277.157236 114.113208 277.881937 110.430189 276.25136 109.101887 276.070185 107.65283 276.492927 106.203774 277.579978 106.022642 314.479325 105.660377 327.282372 105.237736"></polygon>
                    <polygon id="ID" fill="#21272F" fill-rule="nonzero" points="97.4314472 13.0596226 94.5326442 23.5713208 91.8150163 36.1660377 89.7616975 45.9592453 89.5201306 51.7977358 90.2448313 54.4784906 92.3585419 56.0845283 92.2377584 58.445283 89.882481 61.1018868 87.1648531 65.0867925 86.6213275 66.8377358 85.8966268 67.5018868 84.8095756 67.9849057 82.2127312 71.1849057 81.9711643 73.0566038 81.7295974 73.7207547 82.0919478 74.3245283 83.6621328 74.2641509 84.3264418 75.6528302 82.8770403 79.154717 82.1523395 81.690566 76.8378672 103.003774 89.3389554 105.720755 113.193689 110.490566 134.210011 114.173585 137.169206 96.5433962 139.464091 81.9924528 137.833515 80.5433962 137.591948 78.9735849 137.108814 78.309434 135.840588 78.9132075 135.417845 80.4830189 133.48531 80.7849057 131.130033 79.8188679 128.835147 79.8792453 127.325354 80.3018868 125.272035 79.3962264 123.822633 79.5169811 122.373232 80.7245283 121.165397 80.0603774 120.742655 77.645283 121.165397 75.8943396 119.655604 74.1433962 117.662677 72.5735849 116.0321 64.6641509 115.971708 61.8264151 115.790533 61.7660377 115.66975 62.0075472 112.589771 64.1207547 111.563112 64 109.811752 61.9471698 109.690968 60.0754717 113.91839 49.7328302 113.676823 48.5615094 111.623504 47.8671698 111.261153 47.154717 109.690968 45.0656604 106.912949 38.8890566 104.980413 37.965283 103.772579 34.9766038 104.557671 32.1811321 102.625136 27.6045283 105.282372 14.6113208"></polygon>
                    <polygon id="IL" fill="#21272F" fill-rule="nonzero" points="365.208379 125.766038 364.725245 124.196226 363.940152 121.962264 362.973885 120.875472 362.068009 119.30566 361.826442 115.984906 352.224157 117.071698 341.715996 117.675472 334.287813 117.675472 334.408596 118.943396 335.737214 119.486792 336.401523 120.332075 336.64309 121.177358 338.998368 123.230189 339.42111 124.679245 338.998368 126.671698 337.971708 128.90566 337.488575 130.535849 336.039173 131.683019 334.89173 132.045283 331.75136 132.830189 330.966268 135.30566 331.328618 135.969811 332.476061 137.056604 332.355277 139.65283 331.087051 140.618868 330.785092 141.403774 330.785092 143.09434 329.698041 143.456604 328.852557 144.181132 328.61099 144.90566 328.852557 146.113208 327.886289 146.898113 327.342764 148.588679 327.523939 150.943396 328.912949 155.169811 333.14037 159.758491 336.582699 161.992453 336.582699 164.649057 337.005441 165.373585 340.991295 165.735849 342.621872 166.581132 342.199129 168.69434 340.870511 172.437736 340.387378 174.249057 341.595212 176.483019 345.460283 179.683019 348.359086 180.166038 349.687704 183.245283 350.895539 185.298113 350.352013 186.988679 351.257889 189.283019 352.284548 190.550943 353.250816 190.369811 353.854733 189.041509 355.304135 188.015094 356.995103 187.411321 360.678999 188.920755 360.980958 188.8 360.980958 188.135849 360.256257 186.50566 360.497824 184.815094 361.947225 183.849057 364.000544 183.124528 363.698585 182.339623 363.215452 181.132075 363.940152 180.34717 364.54407 178.716981 364.54407 176.301887 364.785637 173.343396 366.29543 171.532075 367.382481 169.237736 368.892274 166.822642 368.590316 163.622642 367.503264 161.690566 367.322089 159.698113 367.805223 156.498113 367.382481 152.150943 366.718172 142.611321 365.872688 133.373585 365.329162 126.309434"></polygon>
                    <polygon id="IN" fill="#21272F" fill-rule="nonzero" points="367.744831 126.85283 368.650707 127.456604 369.315016 127.275472 370.583243 126.128302 372.093036 125.041509 380.729053 124.377358 391.841132 123.290566 392.807399 132.649057 395.766594 158.369811 395.404244 160.120755 396.189336 161.086792 396.31012 161.871698 394.92111 162.837736 392.747008 163.864151 390.814472 164.10566 390.512514 167.003774 387.674102 169.177358 385.922742 171.592453 386.043526 173.041509 385.741567 173.886792 383.627856 173.886792 382.782372 172.860377 379.642002 174.671698 379.762786 176.543396 379.21926 176.664151 378.917301 176.120755 377.4679 175.09434 375.293798 176 374.448313 177.750943 373.723613 177.388679 372.757345 176.301887 370.100109 176.603774 366.65778 177.207547 365.147987 177.992453 365.147987 176.422642 365.389554 173.584906 366.778564 171.833962 367.865615 169.479245 369.496192 166.943396 369.194233 163.441509 368.107182 161.569811 367.926007 159.637736 368.40914 156.437736 367.986398 152.150943 367.442873 144.543396 365.933079 126.369811"></polygon>
                    <polygon id="KS" fill="#21272F" fill-rule="nonzero" points="285.008161 153.056604 258.556583 152.69434 234.037541 151.969811 220.932535 151.426415 218.335691 190.550943 233.010881 191.154717 260.005985 192.422642 287.967356 192.784906 295.576714 192.603774 295.999456 171.471698 295.274755 164.769811 293.764962 163.562264 292.31556 161.750943 290.926551 159.577358 291.288901 157.766038 292.31556 156.920755 292.31556 155.65283 291.832427 155.230189 290.262242 155.109434 288.148531 153.056604"></polygon>
                    <polygon id="KY" fill="#21272F" fill-rule="nonzero" points="358.26333 196.709434 365.872688 196.286792 365.933079 193.811321 368.529924 193.811321 386.88901 191.879245 414.12568 189.283019 417.507617 187.109434 419.862894 185.841509 419.923286 184.69434 423.54679 179.984906 426.022851 177.811321 427.291077 176.362264 425.29815 175.154717 423.788357 173.524528 421.976605 171.230189 421.674646 169.901887 420.104461 169.056604 419.560936 167.909434 419.440152 164.226415 417.869967 163.018868 416.722524 162.354717 416.420566 160.966038 415.635473 161.086792 414.427639 161.811321 412.917845 163.441509 411.770403 162.415094 410.260609 162.113208 408.811208 162.958491 407.422198 162.958491 406.335147 161.750943 402.95321 161.690566 401.866159 158.973585 400.114799 158.067925 398.846572 158.550943 396.31012 158.671698 396.008161 159.939623 396.732862 160.845283 396.914037 162.113208 395.223069 163.320755 392.928183 164.407547 391.357998 164.649057 391.056039 167.366038 388.096844 169.539623 386.526659 171.773585 386.647443 173.101887 386.103917 174.490566 383.386289 174.430189 382.601197 173.645283 380.245919 174.973585 380.366703 176.966038 378.917301 177.328302 378.434168 176.483019 377.407508 175.758491 375.776931 176.422642 374.68988 178.535849 373.361262 177.932075 372.515778 176.966038 370.281284 177.207547 366.899347 177.811321 365.208379 178.596226 364.483678 180.649057 363.879761 181.25283 364.785637 183.486792 362.249184 184.332075 361.101741 185.177358 360.860174 186.50566 361.584875 187.954717 361.584875 189.283019 360.618607 189.524528 356.934712 188.015094 355.545702 188.558491 354.337867 189.403774 353.854733 190.490566 354.881393 191.939623 354.337867 193.026415 354.277476 195.018868 352.828074 195.803774 351.559848 196.830189"></polygon>
                    <polygon id="LA" fill="#21272F" fill-rule="nonzero" points="309.76877 289.750943 314.660501 289.569811 320.880849 291.743396 324.806311 292.407547 327.040805 291.501887 328.973341 292.166038 330.905876 292.769811 331.38901 291.501887 329.456474 290.837736 327.886289 291.139623 326.255713 290.173585 326.738847 289.267925 328.61099 288.664151 329.698041 289.569811 330.785092 288.966038 332.717628 289.328302 333.623504 290.777358 333.804679 292.166038 336.522307 292.34717 337.609358 293.433962 337.126224 294.4 336.341132 294.883019 337.307399 295.849057 342.380305 298.022642 344.554407 297.237736 345.158324 295.788679 346.728509 295.426415 347.81556 294.520755 348.600653 295.124528 349.083787 296.875472 347.694777 297.358491 348.057127 297.720755 350.110446 296.935849 351.499456 294.883019 351.98259 294.581132 350.714363 294.4 351.197497 293.433962 351.076714 292.528302 352.34494 292.226415 353.009249 291.441509 353.3716 291.924528 353.73395 293.796226 356.270403 294.158491 358.686072 295.30566 359.289989 296.211321 361.041349 296.211321 361.705658 296.815094 363.094668 294.943396 363.094668 294.037736 362.309576 294.037736 360.256257 292.407547 356.753536 291.924528 354.821001 290.535849 355.48531 288.90566 356.87432 289.086792 356.995103 288.724528 355.908052 288.120755 355.908052 287.818868 357.840588 287.818868 358.927639 285.94717 358.142546 284.8 357.961371 283.169811 357.055495 283.290566 355.908052 284.558491 355.545702 286.128302 353.673558 285.766038 353.069641 284.679245 354.156692 283.532075 355.304135 282.50566 353.975517 278.581132 351.922198 276.528302 352.526115 272.120755 352.405332 271.818868 351.620239 271.939623 331.630577 272.784906 331.147443 271.335849 331.630577 266.203774 336.824266 257.267925 336.28074 255.698113 337.126224 255.456604 337.367791 254.249057 336.039173 253.041509 336.099565 251.89434 334.89173 249.177358 334.650163 246.098113 334.710555 245.675472 318.767138 246.158491 303.548422 246.218868 303.789989 252.075472 304.212731 257.811321 304.51469 260.045283 306.084875 262.762264 306.6284 265.418868 309.225245 269.041509 309.40642 270.913208 309.76877 271.396226 309.346028 276.407547 307.65506 279.184906 308.379761 280.633962 308.077802 282.203774 307.594668 286.611321 306.809576 288.422642 306.930359 290.656604"></polygon>
                    <path d="M527.541349,100.528302 L527.239391,99.1396226 L527.722524,98.2339623 L529.473885,97.3283019 L529.957018,99.2 L529.65506,100.286792 L528.205658,101.192453 L528.205658,101.796226 L529.353101,100.890566 L531.708379,98.1735849 L534.063656,97.0264151 L536.600109,96.1207547 L536.418934,94.6716981 L535.815016,92.9207547 L534.667573,91.4716981 L533.580522,90.9886792 L532.312296,91.109434 L532.010337,91.4113208 L532.614255,92.1962264 L533.520131,91.7132075 L534.788357,92.6792453 L535.271491,94.309434 L534.18444,95.3962264 L532.79543,96 L530.621328,95.6981132 L528.26605,92.0754717 L526.87704,90.5056604 L525.789989,90.5056604 L525.12568,90.9886792 L523.978237,89.4188679 L524.159412,88.5132075 L525.608814,85.3735849 L523.857454,82.7169811 L521.62296,83.8037736 L520.535909,85.554717 L509.484222,88.3924528 L501.150163,89.9018868 L500.787813,96.3018868 L501.210555,99.2603774 L514.496736,96.3622642 L521.260609,94.6716981 L522.468444,95.6377358 L524.521763,98.2339623 L526.273123,101.071698 L527.541349,100.528302 Z M535.090316,101.373585 L536.418934,100.950943 L536.720892,99.9245283 L537.32481,99.9849057 L537.928727,101.373585 L537.143634,101.675472 L534.788357,101.735849 L535.090316,101.373585 Z M529.413493,101.856604 L530.802503,100.286792 L531.76877,100.286792 L532.855822,101.192453 L531.40642,101.796226 L530.077802,102.4 L529.413493,101.856604 Z" id="MA" fill="#21272F" fill-rule="nonzero"></path>
                    <path d="M495.714908,155.833962 L496.741567,153.539623 L497.043526,150.641509 L493.238847,151.30566 L489.736126,151.486792 L487.44124,141.343396 L486.052231,138.022642 L485.146355,135.245283 L471.739391,137.841509 L449.0321,142.430189 L450.239935,148.709434 L453.138738,145.750943 L454.648531,145.328302 L455.494015,144.422642 L456.581066,142.792453 L457.547334,143.215094 L459.117519,143.09434 L460.687704,141.826415 L461.895539,140.920755 L463.163765,140.558491 L464.069641,141.222642 L465.700218,142.067925 L466.847661,143.154717 L467.632753,144 L470.531556,144.966038 L470.169206,146.716981 L473.671926,147.984906 L474.940152,146.415094 L477.174646,147.924528 L475.90642,149.916981 L475.483678,151.909434 L474.396627,153.479245 L474.396627,154.74717 L474.577802,155.230189 L475.785637,156.015094 L477.838955,156.679245 L480.4358,156.618868 L482.307943,157.222642 L483.57617,157.403774 L484.180087,156.135849 L483.274211,154.867925 L483.274211,153.781132 L481.82481,152.513208 L480.556583,149.192453 L481.341676,145.992453 L481.220892,144.724528 L480.4358,143.939623 C480.4358,143.939623 481.341676,142.973585 481.341676,142.550943 C481.341676,142.188679 481.643634,141.283019 481.643634,141.283019 L482.791077,140.498113 L483.93852,139.532075 L484.240479,140.135849 L483.334603,141.101887 L482.54951,143.335849 L482.730686,144 L483.817737,144.181132 L484.119695,147.501887 L482.851469,148.10566 L483.032644,150.279245 L483.334603,150.158491 L483.998912,149.011321 L484.96518,150.098113 L483.998912,150.883019 L483.817737,152.935849 L485.387922,154.988679 L487.743199,155.290566 L488.709467,154.807547 L490.642002,157.343396 L491.245919,157.584906 L495.714908,155.833962 Z M486.958107,155.954717 L487.622416,157.464151 L487.743199,158.550943 L488.407508,159.698113 C488.407508,159.698113 488.951034,159.154717 488.951034,158.973585 C488.951034,158.792453 488.528292,157.101887 488.528292,157.101887 L488.10555,155.713208 L486.958107,155.954717 Z" id="MD" fill="#21272F" fill-rule="nonzero"></path>
                    <path d="M514.436344,51.8641509 L515.34222,52.1056604 L515.34222,50.5358491 L515.825354,47.2150943 L517.395539,44.3773585 L518.301415,41.9622642 L517.153972,40.5132075 L517.153972,36.890566 L517.637106,36.2867925 L518.120239,34.6566038 L517.999456,33.7509434 L517.878672,30.8528302 L518.965724,27.954717 L520.717084,22.5811321 L521.98531,20.045283 L522.770403,20.045283 L523.555495,20.1660377 L523.555495,20.8301887 L524.340588,22.2188679 L525.971164,22.5811321 L526.454298,22.0981132 L526.454298,21.4943396 L528.869967,19.7433962 L529.957018,18.6566038 L530.862894,18.7773585 L534.486398,20.2264151 L535.633841,20.8301887 L541.129489,38.8830189 L544.752992,38.8830189 L545.236126,40.0301887 L545.35691,42.9283019 L547.10827,44.3169811 L547.591404,44.3169811 L547.712187,44.0150943 L547.410229,43.3509434 L549.101197,43.0490566 L550.24864,44.3169811 L551.63765,46.5509434 L551.63765,47.6981132 L550.369423,50.5358491 L549.22198,50.8981132 L547.168662,52.7698113 L544.269859,56.090566 L543.484766,56.090566 C543.122416,56.090566 542.880849,54.8226415 542.880849,54.8226415 L541.793798,54.9433962 L541.18988,55.8490566 L539.740479,56.754717 L539.136561,57.6603774 L540.102829,58.5660377 L539.800871,58.9283019 L539.498912,60.5584906 L538.351469,60.4377358 L538.351469,59.4716981 L538.170294,58.6867925 L537.264418,58.8679245 L536.177367,56.9358491 L534.90914,57.7207547 L535.694233,58.6264151 L535.875408,59.290566 L535.392274,60.0754717 L535.573449,61.9471698 L535.694233,62.9132075 L534.727965,64.4830189 L532.976605,64.7849057 L532.79543,66.5358491 L529.594668,68.4075472 L528.809576,68.709434 L527.843308,67.8037736 L525.971164,69.9773585 L526.575082,71.909434 L525.669206,72.6943396 L525.548422,75.3509434 L524.884113,79.154717 L523.555495,78.6113208 L523.253536,76.7396226 L520.837867,76.0754717 L520.717084,74.5660377 L513.651251,51.9667925 L514.436344,51.8641509 Z M536.479325,61.2830189 L537.385201,60.3773585 L538.230686,61.0415094 L538.593036,62.490566 L537.566376,63.0339623 L536.479325,61.2830189 Z M540.525571,57.7207547 L541.612622,58.8679245 C541.612622,58.8679245 542.397715,58.9283019 542.397715,58.7471698 C542.397715,58.5660377 542.518498,57.5396226 542.518498,57.5396226 L543.062024,57.0566038 L542.57889,55.9698113 L541.371055,56.3924528 L540.525571,57.7207547 Z" id="ME" fill="#21272F" fill-rule="nonzero"></path>
                    <path d="M380.789445,123.773585 L392.324266,122.626415 L392.445049,123.290566 L398.42383,122.384906 L405.670838,121.358491 L405.73123,120.996226 L405.852013,120.090566 L407.120239,117.856604 L408.328074,116.830189 L408.207291,113.750943 L409.173558,112.784906 L409.837867,112.603774 L409.958651,110.430189 L410.864527,108.618868 L411.528836,108.981132 L411.649619,109.343396 L412.132753,109.464151 L413.280196,108.860377 L413.038629,103.366038 L411.106094,98.4150943 L409.717084,92.9207547 L408.267682,90.9886792 L406.697497,89.9018868 L405.73123,90.5660377 L403.375952,91.6528302 L402.228509,94.6716981 L400.597933,96.9056604 L399.933624,97.2679245 L399.027748,96.9056604 C399.027748,96.9056604 397.457563,96 397.578346,95.6377358 C397.699129,95.2754717 397.880305,92.6188679 397.880305,92.6188679 L399.933624,91.8339623 L400.416757,89.7811321 L400.779108,88.2113208 L402.228509,87.245283 L402.047334,81.2075472 L401.081066,79.8188679 L400.295974,79.3358491 L399.81284,78.0679245 L400.295974,77.5849057 L401.262242,77.7660377 L401.383025,76.8 L399.81284,75.4716981 L399.027748,73.9018868 L397.457563,73.9018868 L394.739935,72.9962264 L391.41839,70.9433962 L389.787813,70.9433962 L389.425462,71.3056604 L388.821545,71.0037736 L386.949402,69.6150943 L385.198041,70.7018868 L383.446681,72.090566 L383.627856,74.2641509 L384.231774,74.445283 L385.5,74.7471698 L385.801959,75.2301887 L384.231774,75.7132075 L382.661589,75.8943396 L381.755713,76.9811321 L381.574538,78.2490566 L381.755713,79.2150943 L381.936888,82.5358491 L379.762786,83.8037736 L379.400435,83.6830189 L379.400435,81.1471698 L380.185528,79.6981132 L380.547878,78.2490566 L380.064744,77.7660377 L378.917301,78.2490566 L378.313384,80.7849057 L376.682807,81.4490566 L375.595756,82.5962264 L375.474973,83.2 L375.837323,83.6830189 L375.474973,85.2528302 L374.085963,85.554717 L374.085963,86.2188679 L374.569097,87.6679245 L373.904788,91.3509434 L372.93852,93.7660377 L373.300871,96.6037736 L373.602829,97.2679245 L373.119695,98.7169811 L372.93852,99.2 L372.757345,100.830189 L374.931447,104.45283 L376.682807,108.377358 L377.588683,111.275472 L377.10555,114.113208 L376.501632,117.735849 L375.052231,120.875472 L374.871055,122.50566 L372.93852,124.377358 L380.789445,123.773585 Z M360.678999,80.0603774 L359.893906,79.3962264 L358.806855,73.1169811 L356.572361,72.3320755 L355.545702,70.9433962 L347.936344,69.2528302 L346.245375,68.5886792 L341.353645,67.2603774 L336.64309,66.6566038 L334.287813,63.4566038 L334.710555,63.154717 L336.341132,62.6716981 L338.515234,61.2830189 L338.515234,60.6792453 L338.877584,60.3169811 L342.501088,59.7132075 L343.95049,58.5660377 L346.607726,57.2981132 L346.728509,56.5132075 L347.875952,54.7622642 L348.963003,54.2792453 L349.748096,53.1924528 L351.137106,51.8037736 L353.794342,50.354717 L356.632753,50.0528302 L357.297062,50.7169811 L357.115887,51.3207547 L354.881393,51.9245283 L353.975517,53.7962264 L352.586507,54.2792453 L352.284548,55.7283019 L350.835147,57.6603774 L350.653972,59.2301887 L351.137106,59.5320755 L351.741023,58.8679245 L353.915125,57.1169811 L354.700218,57.9018868 L356.089227,57.9018868 L358.021763,58.5056604 L358.927639,59.1698113 L359.833515,61.0415094 L361.464091,62.6716981 L363.819369,62.5509434 L364.725245,61.9471698 L365.691513,62.7320755 L366.65778,63.0339623 L367.442873,62.5509434 L368.107182,62.5509434 L369.073449,61.9471698 L371.489119,59.7735849 L373.542437,59.109434 L377.528292,58.9283019 L380.245919,57.7811321 L381.816104,56.9962264 L382.72198,57.1169811 L382.72198,60.5584906 L383.023939,60.7396226 L384.775299,61.2226415 L385.922742,60.9207547 L389.606638,59.954717 L390.270947,59.290566 L391.176823,59.5924528 L391.176823,63.8188679 L393.109358,65.690566 L393.89445,66.0528302 L394.679543,66.6566038 L393.89445,66.8377358 L393.411317,66.6566038 L391.176823,66.354717 L389.908596,66.7169811 L388.519587,66.5962264 L386.587051,67.5018868 L385.5,67.5018868 L381.99728,66.7169811 L378.85691,66.8377358 L377.709467,68.4075472 L373.482046,68.7698113 L372.032644,69.2528302 L371.368335,71.1245283 L370.583243,71.7886792 L370.281284,71.6679245 L369.375408,70.7018868 L366.65778,72.1509434 L366.29543,72.1509434 L365.631121,71.1849057 L365.147987,71.3056604 L364.000544,73.9622642 L363.396627,76.3773585 L361.464091,80.5433962 L360.678999,80.0603774 Z M342.803047,45.9471698 L343.890098,44.6792453 L345.218716,44.1962264 L348.479869,41.8415094 L349.868879,41.4792453 L350.170838,41.7811321 L347.09086,44.8603774 L345.097933,46.0075472 L343.829706,46.5509434 L342.803047,45.9471698 Z M394.860718,65.3283019 L395.223069,66.8377358 L397.155604,66.9584906 L397.940696,66.2339623 C397.940696,66.2339623 397.880305,65.3283019 397.699129,65.2679245 C397.517954,65.1471698 396.732862,64.1207547 396.732862,64.1207547 L395.404244,64.2415094 L394.437976,64.3622642 L394.256801,65.0264151 L394.860718,65.3283019 Z" id="MI" fill="#21272F" fill-rule="nonzero"></path>
                    <polygon id="MN" fill="#21272F" fill-rule="nonzero" points="272.144723 36.7033962 271.782372 39.0641509 271.782372 45.2649057 272.74864 48.3018868 273.896083 50.3064151 274.198041 56.3018868 275.285092 64.4226415 276.372144 68.8301887 276.613711 72.6943396 276.613711 75.8943396 275.647443 76.9811321 274.560392 77.7660377 274.560392 78.6716981 275.103917 79.6981132 277.579978 81.8113208 278.00272 83.7433962 278.00272 105.418868 314.418934 105.056604 327.22198 104.633962 326.920022 101.011321 325.832971 99.7433962 321.484766 96.9660377 319.310664 93.7660377 317.257345 93.2226415 316.04951 91.5320755 314.116975 91.5320755 312.003264 89.2377358 311.701306 85.0113208 311.761697 82.6566038 312.667573 80.845283 312.244831 79.2150943 310.553863 77.3433962 311.882481 73.6603774 315.143634 71.245283 315.868335 70.4 315.747552 65.5698113 315.868335 63.7584906 317.43852 61.9471698 319.733406 60.1962264 320.518498 60.0754717 323.236126 57.0566038 324.323177 56.5735849 325.712187 54.2188679 327.161589 52.045283 329.033732 50.4754717 331.932535 49.2679245 337.488575 46.7924528 339.843852 45.7056604 340.206202 44.3169811 337.548966 44.5584906 337.126224 45.2226415 336.763874 45.2226415 335.676823 43.3509434 330.301959 43.5320755 329.698041 44.0150943 329.094124 44.0150943 328.792165 43.2301887 328.309032 42.1433962 326.738847 42.445283 324.806311 44.3773585 323.840044 44.8603774 321.9679 44.8603774 320.397715 44.2566038 320.397715 42.9886792 319.612622 42.8679245 319.310664 43.1698113 317.740479 42.3849057 317.43852 40.6339623 316.532644 40.9358491 316.230686 41.5396226 314.781284 41.2377358 311.580522 39.7886792 309.225245 38.2188679 307.473885 38.2188679 306.688792 37.6150943 305.299782 37.9773585 304.635473 38.6415094 304.454298 39.4264151 301.555495 39.4264151 301.555495 38.1584906 297.750816 37.9773585 297.569641 37.0716981 294.670838 37.0716981 293.70457 36.1056604 292.798694 32.4226415 292.31556 29.1018868 291.168118 28.6188679 289.779108 28.3169811 289.416757 28.4377358 289.235582 33.3886792 271.057671 33.370566"></polygon>
                    <polygon id="MO" fill="#21272F" fill-rule="nonzero" points="349.748096 200.875472 350.050054 197.313208 352.586507 195.260377 353.73395 194.656604 353.73395 192.90566 354.156692 191.939623 353.492383 190.973585 352.042982 191.154717 350.774755 189.645283 349.748096 186.928302 350.291621 185.358491 349.083787 183.426415 347.996736 180.649057 345.218716 180.226415 341.112078 176.845283 339.78346 174.309434 340.266594 172.316981 341.595212 168.69434 341.957563 166.883019 340.81012 166.279245 336.64309 165.916981 335.978781 164.769811 335.978781 162.29434 332.77802 160.181132 328.429815 155.471698 327.040805 151.064151 326.738847 148.528302 327.161589 147.079245 325.591404 145.207547 324.866703 143.758491 320.21654 144.241509 314.177367 144.603774 284.706202 145.328302 285.491295 146.898113 285.430903 148.226415 286.819913 150.4 288.631665 152.754717 290.503808 154.566038 292.073993 154.686792 292.919478 155.350943 292.919478 157.101887 291.832427 158.067925 291.530468 159.456604 292.798694 161.388679 294.248096 163.2 295.818281 164.467925 296.603373 171.471698 296.120239 195.622642 296.422198 199.064151 310.735038 198.943396 324.806311 198.520755 344.433624 197.735849 345.762242 199.969811 345.279108 201.841509 343.406964 203.350943 343.105005 204.437736 346.245375 204.739623 348.721436 204.075472"></polygon>
                    <polygon id="MS-2" fill="#21272F" fill-rule="nonzero" points="356.51197 281.660377 358.082155 279.124528 359.169206 279.607547 363.275843 278.460377 364.54407 278.641509 365.449946 279.124528 368.590316 279.124528 368.831882 278.158491 367.805223 269.222642 366.114255 257.750943 366.718172 230.520755 366.597388 220.437736 366.718172 216.633962 363.819369 216.815094 351.98259 217.781132 344.131665 218.022642 344.010881 219.954717 342.319913 220.739623 340.749728 223.818868 341.051687 224.784906 341.112078 226.233962 339.360718 226.898113 337.247008 229.977358 337.730141 231.366038 335.91839 232.875472 335.314472 236.316981 334.952122 237.464151 335.91839 238.973585 335.012514 239.818868 335.91839 241.509434 336.099565 244.045283 335.374864 245.554717 335.254081 246.098113 335.495647 249.116981 336.703482 251.833962 336.64309 252.860377 338.0321 254.067925 337.609358 255.939623 337.065832 256.120755 337.428183 257.267925 332.234494 266.324528 331.75136 271.275472 332.053319 272.181132 346.668118 271.758491 351.620239 271.335849 352.767682 271.154717 353.130033 272 352.526115 276.286792 354.519042 278.279245 355.847661 282.143396"></polygon>
                    <polygon id="MT" fill="#21272F" fill-rule="nonzero" points="209.639282 39.1064151 206.43852 73.6 205.653428 82.7773585 169.961915 78.7924528 140.369967 74.5056604 139.524483 81.2679245 138.37704 80.2415094 138.135473 78.7320755 137.350381 77.5849057 135.357454 78.490566 134.934712 80 133.545702 80.1811321 131.250816 79.2150943 128.774755 79.2754717 127.325354 79.6981132 125.392818 78.7924528 123.581066 78.9132075 122.31284 80.0603774 121.769314 79.6981132 121.346572 77.645283 121.769314 75.7132075 120.138738 73.7811321 118.145811 72.2716981 116.636017 64.6641509 116.575626 61.4641509 115.609358 60.9811321 115.247008 61.5849057 112.52938 63.5169811 111.804679 63.4566038 110.415669 61.7660377 110.294886 60.0754717 114.522307 49.7207547 114.159956 48.1086792 112.046246 47.4324528 111.804679 46.8830189 110.174102 44.7698113 107.396083 38.4845283 105.463547 37.530566 104.376496 34.9584906 105.161589 32.1630189 103.229053 27.5924528 105.886289 14.7381132 125.634385 18.8981132 136.746464 20.9509434 156.252992 24.1509434 173.947769 26.5660377 191.582155 28.6792453 210.182807 30.5328302"></polygon>
                    <path d="M466.666485,212.34717 L458.996736,207.698113 L457.124592,207.215094 L447.099565,208.483019 L446.133297,206.671698 L444.442329,205.343396 L434.35691,205.645283 L429.887922,206.188679 L424.331882,208.90566 L420.225245,210.535849 L416.299782,211.260377 L408.207291,212.10566 L408.267682,209.630189 L409.294342,208.845283 L410.924918,208.422642 L411.347661,206.128302 L413.702938,204.618868 L416.058215,203.713208 L418.775843,201.479245 L421.433079,200.090566 L421.855822,198.158491 L424.331882,195.864151 L424.754625,196.467925 L426.264418,196.588679 L427.713819,194.415094 L428.740479,194.173585 L430.310664,194.354717 L431.397715,191.939623 L432.907508,190.490566 L433.209467,189.403774 L433.269859,187.290566 L435.927095,187.350943 L459.177911,183.969811 L493.903156,176.543396 L495.11099,179.441509 L497.285092,183.366038 L498.734494,184.815094 L499.096844,186.203774 L497.647443,186.324528 L498.130577,186.686792 L497.949402,189.222642 L496.379217,190.007547 L496.016866,191.275472 L495.231774,193.026415 L492.99728,193.992453 L491.547878,193.811321 L490.642002,193.690566 L489.675734,192.90566 L489.85691,193.690566 L489.85691,194.29434 L491.004353,194.29434 L491.487486,195.079245 L490.340044,198.883019 L492.876496,198.883019 L493.238847,199.849057 L494.627856,198.460377 L495.412949,198.158491 L494.265506,200.332075 L492.393362,203.230189 L491.60827,203.230189 L490.943961,202.928302 L489.313384,203.290566 L486.173014,204.739623 L482.247552,207.939623 L480.194233,210.777358 L479.04679,214.701887 L478.744831,216.150943 L475.90642,216.45283 L472.826442,217.358491 L466.666485,212.34717 Z M496.439608,196.528302 L498.009793,195.018868 L499.942329,193.449057 L500.848205,193.086792 L500.968988,191.879245 L500.606638,188.196226 L499.700762,186.807547 L499.338411,185.660377 L499.761153,185.539623 L501.39173,188.860377 L501.633297,191.516981 L501.512514,193.569811 L499.459195,194.475472 L497.768226,195.924528 L497.103917,196.649057 L496.439608,196.528302 Z" id="NC" fill="#21272F" fill-rule="nonzero"></path>
                    <polygon id="ND" fill="#21272F" fill-rule="nonzero" points="276.009793 72.6943396 275.768226 68.9509434 274.681175 64.5433962 273.594124 56.3260377 273.292165 50.469434 272.144723 48.549434 271.178455 45.3373585 271.178455 39.0520755 271.540805 36.7275472 270.453754 33.3826415 253.181719 33.0264151 241.948857 32.6641509 225.945049 31.8792453 210.726333 30.5750943 210.182807 39.2815094 207.344396 70.0377358 241.646899 72.3924528 276.009793 73.4188679"></polygon>
                    <polygon id="NE" fill="#21272F" fill-rule="nonzero" points="275.587051 119.728302 274.983134 118.339623 274.681175 117.373585 272.929815 116.407547 270.031012 115.501887 268.702394 114.777358 267.132209 114.837736 264.897715 115.079245 262.361262 115.803774 258.737758 113.328302 257.40914 112.120755 250.947225 112.483019 225.884657 111.033962 204.385201 109.70566 201.788357 136.090566 221.77802 138.083019 220.932535 150.822642 234.037541 151.426415 258.556583 152.150943 285.008161 152.513208 287.725789 152.513208 286.397171 150.701887 284.826986 148.34717 284.887378 146.958491 284.041893 145.328302 282.89445 142.188679 282.652884 138.143396 281.807399 135.667925 281.505441 132.649057 280.116431 130.415094 279.512514 127.577358 277.821545 122.807547 277.217628 119.607547"></polygon>
                    <polygon id="NH" fill="#21272F" fill-rule="nonzero" points="524.038629 81.690566 524.702938 79.7584906 523.072361 79.0339623 522.770403 77.1622642 520.294342 76.4981132 520.113166 74.6867925 513.047334 52.0573585 512.624592 52.1056604 512.262242 53.0716981 511.899891 52.7698113 511.295974 52.1660377 510.390098 53.3132075 510.269314 54.6958491 510.571273 59.7735849 511.718716 61.4641509 511.718716 64.0603774 509.363439 66.9584906 507.914037 67.5018868 507.914037 67.9245283 508.578346 69.0716981 508.578346 74.2641509 508.095212 79.8188679 507.974429 82.6566038 508.578346 83.5018868 508.457563 86.3396226 508.155604 87.245283 508.759521 87.909434 511.839499 87.1849057 520.173558 85.0716981 521.200218 83.3207547 523.615887 82.1735849"></polygon>
                    <polygon id="NJ" fill="#21272F" fill-rule="nonzero" points="489.011425 134.218868 489.071817 133.313208 490.702394 132.528302 491.729053 130.837736 492.755713 129.388679 494.74864 127.456604 494.74864 126.732075 491.064744 124.256604 490.460827 122.626415 488.83025 122.445283 488.769859 121.901887 488.347116 120.573585 489.675734 119.909434 489.796518 118.158491 489.011425 117.373585 489.132209 116.649057 490.279652 114.777358 490.279652 112.90566 491.789445 111.033962 495.171382 112.543396 499.036453 113.690566 500.546246 114.415094 500.606638 115.501887 500.304679 117.132075 500.546246 119.849057 499.27802 120.996226 498.613711 121.6 498.915669 121.901887 500.546246 121.720755 501.210555 121.237736 502.176823 123.290566 502.297606 128.966038 502.659956 129.630189 501.995647 132.950943 500.123504 136.875472 498.492927 139.290566 498.009793 142.188679 496.741567 143.637736 496.258433 143.637736 496.077258 142.007547 496.560392 141.403774 496.439608 140.498113 494.023939 140.135849 491.125136 138.74717 489.192601 136.996226 488.588683 135.788679"></polygon>
                    <polygon id="NM" fill="#21272F" fill-rule="nonzero" points="154.743199 255.637736 144.65778 254.067925 143.933079 259.864151 134.391186 258.656604 138.01469 234.686792 142.242111 202.566038 144.899347 183.909434 165.432535 186.264151 188.019042 188.920755 207.344396 190.611321 207.163221 197.132075 206.317737 197.071698 201.848749 256.060377 184.697497 254.973585 161.688248 252.739623 162.11099 256.543396"></polygon>
                    <polygon id="NV" fill="#21272F" fill-rule="nonzero" points="65.9069641 101.192453 89.2785637 106.324528 104.980413 109.464151 98.5788901 141.524528 95.3177367 159.516981 93.3248096 168.875472 92.0565832 175.577358 90.4863983 185.479245 89.4597388 187.350943 88.4934712 187.290566 87.7687704 185.720755 86.077802 185.418868 85.2927095 184.754717 84.2056583 184.815094 83.6621328 185.298113 82.5750816 186.083019 82.3939064 190.490566 82.2127312 191.396226 81.9107726 198.883019 81.2464635 199.969811 71.1610446 184.573585 45.7361262 147.079245 38.2294342 135.607547 43.3929271 115.924528 48.2303047 97.0264151"></polygon>
                    <polygon id="NY" fill="#21272F" fill-rule="nonzero" points="500.908596 117.132075 501.210555 115.501887 501.089771 114.05283 499.27802 113.14717 495.352557 111.939623 491.729053 110.369811 491.366703 110.128302 489.736126 109.94717 488.528292 109.041509 487.260065 105.479245 485.267138 105.177358 483.817737 103.728302 460.627312 108.618868 441.543526 112.241509 441.241567 108.316981 442.207835 107.592453 442.992927 106.928302 443.596844 105.962264 444.683896 105.298113 445.831338 104.211321 446.133297 103.245283 447.401523 101.615094 448.065832 101.011321 447.945049 100.407547 447.159956 98.5358491 446.072905 98.4150943 444.925462 94.7320755 446.676823 93.645283 449.334059 92.7396226 451.749728 91.954717 453.682263 91.6528302 457.486942 91.5320755 458.634385 92.3169811 459.600653 92.4377358 460.868879 91.6528302 462.439064 90.9886792 465.579434 90.6867925 466.847661 89.6 467.934712 87.6679245 468.900979 86.5207547 470.169206 86.5207547 471.316649 85.8566038 471.437432 84.4679245 470.531556 83.2 470.350381 82.2943396 471.01469 81.0264151 471.01469 80.1207547 469.927639 80.1207547 468.840588 79.6377358 468.357454 78.9735849 468.23667 77.4037736 471.739391 74.0830189 472.101741 73.6 473.007617 71.8490566 474.758977 69.1320755 476.389554 66.8981132 477.65778 65.4490566 479.107182 64.3622642 480.979325 63.6377358 484.300871 62.8528302 486.233406 62.9735849 488.951034 62.0679245 493.420022 60.7396226 493.842764 63.6981132 495.292165 67.6226415 495.775299 70.6415094 495.171382 73.1773585 496.741567 75.8943396 497.224701 77.1018868 496.681175 79.0339623 498.915669 80.0603774 500.546246 86.2188679 500.546246 89.7207547 500.183896 96.3018868 500.667029 99.5622642 501.089771 101.735849 501.995647 106.143396 501.995647 111.033962 501.331338 112.422642 502.599565 114.05283 502.901523 114.596226 501.754081 115.683019 501.935256 116.467925 502.720348 116.286792 503.626224 115.501887 505.015234 113.932075 505.679543 113.569811 506.645811 113.932075 508.03482 114.05283 512.805767 111.698113 514.557127 110.067925 515.34222 109.162264 517.878672 110.128302 515.825354 112.301887 513.470076 114.05283 509.182263 117.25283 507.612078 117.856604 504.109358 119.003774 501.693689 119.667925 501.089771 119.426415"></polygon>
                    <polygon id="OH" fill="#21272F" fill-rule="nonzero" points="392.445049 123.89434 393.471708 133.25283 396.370511 158.067925 398.725789 157.94717 400.114799 157.464151 402.288901 158.550943 403.31556 161.086792 406.576714 161.14717 407.663765 162.354717 408.690424 162.354717 410.139826 161.509434 412.01197 161.811321 412.917845 162.596226 414.004897 161.388679 415.393906 160.543396 416.843308 160.301887 417.205658 161.932075 418.171926 162.535849 419.742111 163.743396 420.225245 163.864151 421.433079 163.803774 422.15778 163.441509 422.15778 162.173585 423.18444 161.267925 423.244831 158.369811 423.90914 155.833962 425.056583 155.049057 425.660501 155.471698 426.264418 156.135849 426.68716 156.256604 426.928727 156.015094 426.385201 154.384906 426.385201 153.056604 427.04951 152.211321 428.559304 150.037736 429.344396 149.132075 430.673014 149.433962 431.94124 148.528302 433.752992 146.535849 435.08161 144.301887 435.202394 141.041509 435.504353 138.022642 435.504353 135.245283 434.779652 133.313208 435.504353 132.226415 436.289445 131.501887 435.927095 129.811321 433.33025 114.354717 429.585963 116.588679 427.230686 117.977358 425.177367 120.211321 422.761697 122.566038 420.829162 123.049057 419.077802 123.350943 415.756257 124.920755 414.48803 125.041509 412.434712 123.169811 409.294342 123.532075 407.724157 122.626415 406.395539 121.841509"></polygon>
                    <polygon id="OK" fill="#21272F" fill-rule="nonzero" points="240.318281 198.581132 239.23123 213.25283 238.687704 224.120755 238.808487 225.086792 241.224157 227.260377 242.250816 227.803774 242.794342 227.803774 243.337867 226.535849 244.243743 227.683019 245.210011 227.743396 245.391186 227.622642 245.51197 226.958491 247.202938 227.803774 246.961371 229.916981 249.256257 230.218868 250.76605 230.822642 253.302503 231.184906 254.691513 232.150943 256.201306 231.124528 258.315016 231.54717 259.643634 233.418868 260.368335 233.479245 260.368335 234.867925 261.636561 235.290566 263.146355 234.022642 264.233406 234.384906 265.863983 234.445283 266.286725 235.833962 268.943961 236.920755 269.97062 236.739623 271.118063 234.203774 271.903156 234.203774 272.567465 235.471698 275.103917 235.954717 277.157236 236.739623 278.968988 237.222642 279.935256 236.8 280.357998 235.169811 283.075626 235.169811 284.223069 235.713208 285.853645 234.566038 286.699129 234.566038 287.06148 235.411321 289.235582 235.411321 290.443417 234.324528 291.832427 234.686792 292.859086 236.015094 294.670838 237.041509 296.724157 237.584906 297.8716 238.309434 297.690424 215.607547 296.84494 209.026415 296.784548 203.833962 295.878672 199.849057 295.516322 195.743396 295.576714 193.14717 287.967356 193.328302 260.005985 193.026415 233.010881 191.758491 207.948313 190.671698 207.706746 197.132075"></polygon>
                    <polygon id="OR" fill="#21272F" fill-rule="nonzero" points="32.2929271 92.3169811 49.3475517 96.6641509 65.9673558 100.588679 76.2339499 102.822642 81.5484222 81.6301887 82.273123 78.9735849 83.7225245 75.6528302 83.2997824 74.8679245 81.7899891 74.9283019 81.0048966 73.8415094 81.367247 72.9358491 81.6088139 70.9433962 84.4472252 67.5018868 85.5946681 66.9584906 86.1381937 66.4754717 86.5609358 64.845283 87.0440696 64.1811321 89.3993471 60.7396226 91.6338411 58.3245283 91.7546246 56.3562264 89.7013058 54.8528302 88.976605 52.1056604 81.0652884 49.7932075 71.8253536 47.6981132 62.8873776 47.9215094 62.2230686 47.130566 59.1430903 48.2415094 56.4254625 47.9516981 54.9760609 46.9977358 54.1909684 47.3237736 51.3646355 47.1486792 50.1809576 46.285283 47.2579978 45.2166038 46.5936888 45.1743396 43.9062568 44.4075472 42.8433624 45.325283 39.06284 45.1803774 35.8560392 42.8558491 35.9828618 37.2528302 34.7448313 35.1396226 32.2687704 34.7773585 31.8460283 33.2679245 30.3966268 32.9660377 26.8939064 34.2339623 25.5048966 38.1584906 23.5723613 44.1962264 21.6398259 48.1207547 18.6202394 56.6339623 14.6947769 64.845283 9.80304679 72.4528302 8.65560392 74.2037736 8.17247008 79.3962264 7.38737758 83.0188679 9.02399347 85.1320755"></polygon>
                    <polygon id="PA" fill="#21272F" fill-rule="nonzero" points="436.410229 112.422642 437.195321 112.120755 440.63765 108.8 441.060392 112.966038 461.291621 109.041509 483.57617 104.332075 484.96518 105.720755 486.837323 105.962264 488.045158 109.343396 489.494559 110.490566 491.185528 110.732075 491.245919 110.792453 489.675734 112.724528 489.675734 114.596226 488.528292 116.467925 488.407508 117.615094 489.192601 118.4 489.071817 119.54717 487.622416 120.211321 488.226333 122.264151 488.347116 122.928302 490.038085 123.109434 490.58161 124.618868 494.144723 126.973585 494.144723 127.215094 492.272579 129.026415 491.366703 130.354717 490.340044 132.045283 488.709467 132.769811 487.863983 132.950943 486.595756 133.735849 485.629489 134.581132 472.101741 137.177358 448.730141 141.886792 441.905876 142.732075 439.550598 143.154717 436.47062 129.630189 433.873776 113.992453"></polygon>
                    <polygon id="RI" fill="#21272F" fill-rule="nonzero" points="519.146899 102.460377 518.663765 99.8037736 517.697497 96.1811321 521.139826 95.2754717 522.045702 96.0603774 524.099021 98.6566038 525.789989 101.313208 524.099021 102.158491 523.313928 102.037736 522.649619 103.124528 521.200218 104.271698 519.509249 104.935849"></polygon>
                    <polygon id="SC" fill="#21272F" fill-rule="nonzero" points="449.937976 246.098113 448.66975 245.49434 447.522307 242.113208 446.012514 240.724528 444.50272 240.422642 443.596844 237.645283 441.785092 233.720755 439.24864 232.633962 438.101197 231.54717 437.376496 229.977358 435.927095 228.769811 434.538085 227.984906 433.209467 226.233962 431.276931 224.784906 428.619695 223.758491 428.378128 222.913208 426.989119 221.222642 426.68716 220.316981 424.392274 217.056604 422.338955 217.116981 419.983678 215.607547 419.258977 214.883019 419.138194 214.037736 419.500544 213.071698 421.131121 212.286792 420.647987 211.079245 424.513058 209.449057 430.069097 206.732075 434.35691 206.188679 444.261153 205.886792 445.650163 207.033962 446.737214 209.14717 449.515234 208.664151 457.124592 207.758491 458.755169 208.241509 466.304135 212.709434 472.4037 217.720755 469.202938 220.981132 467.632753 224.664151 467.330794 228.467925 466.364527 228.950943 465.700218 230.581132 464.250816 230.943396 462.98259 233.116981 461.352013 234.74717 459.963003 236.8 458.996736 237.283019 456.822633 239.335849 455.071273 239.456604 455.67519 241.388679 452.655604 244.588679 451.266594 245.554717"></polygon>
                    <polygon id="SD" fill="#21272F" fill-rule="nonzero" points="276.009793 105.720755 275.466268 107.65283 275.707835 109.464151 277.27802 110.671698 276.553319 113.932075 275.466268 116.407547 276.372144 118.4 276.794886 119.064151 276.009793 119.124528 275.587051 118.158491 275.224701 116.950943 273.231774 115.864151 270.332971 114.958491 268.823177 114.173585 267.071817 114.233962 264.71654 114.475472 262.421654 115.2 259.220892 112.90566 257.590316 111.456604 251.007617 111.939623 225.945049 110.490566 204.445593 109.162264 205.351469 94.1886792 207.042437 73.6603774 207.284004 70.6415094 241.646899 72.9962264 276.009793 74.0226415 276.009793 75.6528302 275.224701 76.5584906 274.016866 77.4641509 273.956474 78.7924528 274.620783 80.1207547 277.096844 82.1735849 277.398803 83.8037736 277.398803 105.479245"></polygon>
                    <polygon id="TN" fill="#21272F" fill-rule="nonzero" points="396.67247 213.49434 388.761153 214.218868 374.68988 215.54717 351.98259 217.177358 344.856366 217.418868 345.399891 217.056604 345.943417 214.339623 345.218716 212.166038 347.573993 210.777358 347.81556 209.267925 348.540261 206.671698 350.352013 200.935849 350.653972 197.554717 350.835147 197.433962 358.26333 197.313208 366.476605 196.830189 366.536997 194.475472 368.650707 194.415094 387.009793 192.422642 419.621328 189.283019 425.841676 188.377358 430.431447 188.256604 431.880849 187.109434 432.665941 187.290566 432.60555 189.283019 432.363983 190.249057 430.914581 191.577358 429.948313 193.750943 428.740479 193.509434 427.291077 194.05283 425.962459 196.045283 425.116975 195.924528 424.633841 195.2 423.969532 195.441509 421.372688 197.856604 420.889554 199.728302 418.353101 201.056604 415.756257 203.230189 413.461371 204.135849 410.804135 205.826415 410.441785 208 408.931991 208.301887 407.724157 209.328302 407.603373 212.226415"></polygon>
                    <path d="M162.352557,253.343396 L184.697497,255.516981 L202.392274,256.664151 L206.861262,197.675472 L239.714363,199.124528 L238.687704,213.192453 L238.083787,224.060377 L238.20457,225.267925 L240.861806,227.743396 L242.069641,228.407547 L243.156692,228.407547 L243.458651,227.683019 L243.881393,228.226415 L245.330794,228.34717 L245.995103,227.984906 L245.995103,227.864151 L246.599021,228.166038 L246.357454,230.4 L249.075082,230.822642 L250.524483,231.366038 L253.060936,231.788679 L254.631121,232.875472 L256.322089,231.728302 L257.952666,232.090566 L259.281284,233.962264 L259.764418,234.022642 L259.764418,235.290566 L261.757345,235.954717 L263.267138,234.686792 L264.173014,234.988679 L265.44124,235.049057 L265.803591,236.316981 L268.943961,237.524528 L270.332971,237.222642 L271.480413,234.807547 L271.540805,234.807547 L272.205114,235.954717 L274.983134,236.498113 L277.036453,237.283019 L278.968988,237.886792 L280.41839,237.162264 L280.841132,235.773585 L283.015234,235.773585 L284.28346,236.377358 L286.095212,235.169811 L286.336779,235.169811 L286.638738,236.015094 L289.477149,236.015094 L290.624592,234.928302 L291.409684,235.169811 L292.436344,236.437736 L294.429271,237.584906 L296.48259,238.188679 L297.992383,239.033962 L299.62296,240.241509 L301.495103,239.516981 L302.76333,240 L303.186072,252.075472 L303.608814,257.811321 L303.971164,260.286792 L305.541349,262.943396 L306.084875,265.660377 L308.621328,269.222642 L308.802503,271.09434 L309.164853,271.577358 L308.742111,276.226415 L306.990751,279.124528 L307.775843,280.69434 L307.473885,282.143396 L306.990751,286.490566 L306.205658,288.301887 L306.386834,290.837736 L303.004897,291.803774 L297.026115,294.520755 L296.422198,295.667925 L294.852013,296.815094 L293.583787,297.720755 L292.798694,298.203774 L289.356366,301.403774 L287.725789,302.671698 L284.525027,304.603774 L281.082699,306.05283 L277.27802,308.10566 L276.190968,309.011321 L272.688248,311.184906 L270.634929,311.54717 L268.279652,314.867925 L265.863983,315.049057 L265.260065,316.196226 L266.649075,317.343396 L265.743199,320.664151 L264.958107,323.381132 L264.293798,325.735849 L263.810664,328.45283 L264.293798,329.901887 L265.380849,334.128302 L265.984766,337.811321 L267.071817,339.441509 L266.4679,340.34717 L264.595756,341.49434 L261.153428,339.139623 L257.831882,338.475472 L257.04679,338.777358 L255.114255,338.415094 L252.577802,336.543396 L249.437432,335.879245 L244.847661,333.826415 L243.579434,331.471698 L242.794342,327.54717 L240.861806,326.4 L240.499456,325.011321 L240.861806,324.649057 L241.042982,322.596226 L240.257889,322.233962 L239.895539,321.630189 L240.680631,318.973585 L239.714363,317.584906 L237.781828,316.8 L235.728509,314.143396 L233.554407,310.158491 L231.017954,308.588679 L231.138738,307.441509 L227.937976,300.015094 L227.454842,297.479245 L226.367791,296.332075 L226.247008,295.426415 L222.623504,292.226415 L221.053319,290.354717 L221.053319,289.690566 L219.483134,288.422642 L215.376496,287.758491 L210.907508,287.396226 L209.035365,286.007547 L206.317737,287.09434 L204.143634,288 L202.754625,289.932075 L202.150707,292.166038 L199.493471,295.849057 L198.04407,297.298113 L196.473885,296.69434 L195.386834,296.030189 L194.239391,295.667925 L191.884113,294.279245 L191.884113,293.916981 L190.797062,292.769811 L187.656692,291.501887 L183.187704,286.792453 L181.798694,283.954717 L181.798694,279.064151 L179.866159,275.139623 L179.5642,273.509434 L178.597933,272.90566 L177.933624,271.637736 L174.914037,270.369811 L174.128945,269.403774 L169.841132,264.633962 L169.056039,262.701887 L166.217628,261.313208 L165.311752,258.656604 L163.741567,256.90566 L162.714908,256.603774 L162.352557,253.343396 Z M267.675734,338.898113 L267.313384,334.611321 L265.682807,330.264151 L265.320457,326.037736 L266.226333,321.086792 L268.21926,316.920755 L270.332971,313.660377 L272.265506,311.486792 L272.627856,311.607547 L269.729053,315.592453 L267.071817,319.516981 L265.863983,323.501887 L265.682807,326.641509 L266.226333,330.324528 L267.796518,334.671698 L268.098477,337.811321 L268.21926,338.716981 L267.675734,338.898113 Z" id="TX" fill="#21272F" fill-rule="nonzero"></path>
                    <polygon id="UT" fill="#21272F" fill-rule="nonzero" points="129.499456 181.071698 144.355822 183.245283 145.503264 174.973585 149.730686 144.483019 151.119695 131.2 131.673558 129.086792 133.002176 121.177358 134.089227 114.777358 113.133297 111.09434 105.584331 109.584906 99.1828074 141.524528 95.921654 159.637736 93.9287269 168.935849 92.9020675 174.490566"></polygon>
                    <path d="M495.654516,156.498113 L495.533732,158.188679 L493.782372,160.483019 L493.540805,163.260377 L493.842764,165.313208 L492.755713,168.332075 L491.427095,169.479245 L490.521219,166.701887 L490.762786,163.441509 L491.729053,160.90566 L492.151795,158.913208 L492.091404,157.886792 L495.654516,156.498113 Z M459.238303,183.426415 L435.927095,186.807547 L433.028292,186.74717 L431.699674,186.566038 L430.18988,187.713208 L425.781284,187.773585 L419.560936,188.739623 L415.51469,189.101887 L417.990751,187.532075 L420.466812,186.143396 L420.466812,184.875472 L423.90914,180.467925 L426.385201,178.233962 L427.713819,176.724528 L429.887922,179.320755 L432.182807,179.864151 L433.813384,179.260377 L435.021219,178.354717 L436.47062,179.079245 L439.24864,178.29434 L440.275299,175.637736 L441.724701,176.060377 L443.657236,174.671698 L444.623504,174.913208 L446.314472,172.981132 L446.435256,171.350943 L445.952122,170.626415 L448.850925,164.286792 L449.937976,161.14717 L450.239935,158.309434 L450.662677,158.188679 L451.326986,159.215094 L452.232862,159.939623 L454.588139,159.818868 L455.614799,154.928302 L457.426551,154.566038 L457.909684,152.996226 L459.600653,151.667925 L460.264962,150.4 L461.352013,147.803774 L461.412405,145.026415 L463.586507,145.871698 L467.572361,147.743396 L467.753536,144.603774 L469.806855,145.328302 L469.444505,147.079245 L474.638194,148.950943 L475.483678,150.037736 L475.000544,152.030189 L474.215452,152.815094 L473.913493,153.841509 L474.215452,155.290566 L475.423286,156.075472 L477.778564,156.920755 L479.529924,157.524528 L482.489119,158.067925 L483.817737,159.335849 L485.750272,159.577358 L486.293798,160.301887 L486.052231,163.139623 L486.897715,163.803774 L486.595756,164.950943 L487.320457,165.433962 L487.199674,166.279245 L485.569097,166.218868 L485.629489,167.184906 L487.018498,168.090566 L487.07889,168.935849 L488.165941,170.022642 L488.4679,171.532075 L486.897715,172.377358 L487.863983,173.283019 L491.366703,172.256604 L493.601197,176 L459.238303,183.426415 Z" id="VA" fill="#21272F" fill-rule="nonzero"></path>
                    <polygon id="VT" fill="#21272F" fill-rule="nonzero" points="494.446681 63.5773585 495.896083 67.5018868 496.379217 70.7018868 495.775299 73.0566038 497.285092 75.7132075 497.828618 77.1018868 497.405876 78.6716981 499.398803 79.5773585 501.150163 86.0981132 501.150163 89.2981132 508.095212 88.0301887 507.491295 87.3660377 507.853645 86.2188679 507.974429 83.6226415 507.370511 82.7773585 507.491295 79.9396226 507.974429 74.3245283 507.974429 69.1924528 507.31012 68.1056604 507.31012 67.1396226 509.001088 66.4754717 511.114799 63.8188679 511.114799 61.645283 509.967356 60.0150943 509.786181 56.5192453 494.023939 60.6188679"></polygon>
                    <path d="M36.5565832,37.2528302 L35.1675734,34.6566038 L32.6915125,34.2339623 L32.4499456,32.7849057 L30.9401523,32.4226415 L29.1887922,32.1207547 L28.101741,32.7245283 L26.7127312,30.9735849 L26.8939064,29.2226415 L28.5244831,29.0415094 L29.4907508,26.6264151 L27.9205658,25.9622642 L28.0413493,23.7283019 L30.6985854,23.3660377 L29.0680087,21.7358491 L28.1621328,17.4490566 L28.5244831,15.6981132 L28.5244831,10.9283019 L27.437432,8.99622642 L28.8264418,3.32075472 L30.0946681,3.62264151 L31.5440696,5.37358491 L33.1746464,6.94339623 L35.1071817,8.09056604 L37.8248096,9.35849057 L39.6969532,9.72075472 L41.4483134,10.6264151 L43.5016322,11.2301887 L44.890642,11.109434 L44.890642,9.66037736 L45.6757345,8.99622642 L46.9439608,8.21132075 L47.125136,8.8754717 L47.3063112,9.96226415 L45.9173014,10.2641509 L45.7361262,11.5320755 L46.8231774,12.4377358 L47.4874864,13.8867925 L47.8498368,15.0339623 L48.7557127,14.9132075 L48.8764962,14.1283019 L48.2725789,13.3433962 L47.9706202,11.4113208 L48.4537541,10.3245283 L48.0914037,9.41886792 L48.0914037,7.8490566 L49.1784548,5.6754717 L48.5141458,4.10566038 L47.0647443,1.20754717 L47.2459195,0.724528302 L48.0914037,0.241509434 L50.7486398,1.14716981 L56.6066376,2.77735849 L61.8003264,3.9245283 L73.8786725,7.36603774 L87.7687704,10.8075472 L96.8275299,12.914717 L93.9287269,23.5169811 L91.211099,36.0935849 L89.1577802,45.9049057 L88.9162133,51.4475472 L81.1256801,49.2015094 L71.8857454,47.1064151 L63.1289445,47.2996226 L62.4646355,46.3758491 L59.0223069,47.6377358 L56.6670294,47.3841509 L55.0968444,46.3033962 L54.070185,46.6958491 L51.5639282,46.5449057 L50.5251904,45.7479245 L47.4089771,44.6490566 L46.6963547,44.5524528 L43.7975517,43.7132075 L42.6380305,44.709434 L39.2258977,44.5584906 L36.441839,42.5358491 L36.5565832,37.2528302 Z M42.3541893,3.80377358 L43.5620239,3.68301887 L43.8639826,4.52830189 L44.7698585,3.56226415 L46.1588683,3.56226415 L46.6420022,4.46792453 L45.7361262,5.49433962 L46.0984766,5.97735849 L45.6757345,7.18490566 L44.8302503,7.42641509 C44.8302503,7.42641509 44.2867247,7.48679245 44.2867247,7.30566038 C44.2867247,7.1245283 45.1926007,5.73584906 45.1926007,5.73584906 L44.1659412,5.37358491 L43.9847661,6.27924528 L43.5620239,6.64150943 L42.656148,5.25283019 L42.3541893,3.80377358 Z" id="WA" fill="#21272F" fill-rule="nonzero"></path>
                    <polygon id="WI" fill="#21272F" fill-rule="nonzero" points="318.525571 62.7320755 320.276931 63.0339623 322.028292 62.6716981 326.49728 60.7396226 328.24864 59.5924528 329.516866 59.109434 330.664309 60.0150943 330 60.6792453 328.852557 62.5509434 328.490207 63.6981132 329.094124 64.0603774 330.181175 63.4566038 330.845484 63.3358491 332.476061 63.8188679 332.838411 64.4830189 333.50272 64.6037736 333.865071 63.9396226 336.28074 67.1396226 341.232862 67.8641509 346.184984 69.1924528 347.755169 69.8566038 355.183351 71.4264151 356.149619 72.8150943 358.323721 73.5396226 359.350381 79.6981132 360.316649 80.5433962 361.222524 81.0867925 360.558215 82.4754717 359.471164 83.4415094 358.202938 86.2792453 357.417845 87.7283019 357.538629 88.8150943 358.444505 88.9962264 359.108814 87.8490566 360.01469 87.3660377 360.497824 85.9773585 361.645267 84.890566 363.275843 82.4754717 365.812296 78.6716981 366.29543 78.3698113 366.476605 78.9735849 366.355822 80.3622642 364.604461 84.4679245 362.973885 87.909434 362.671926 89.8415094 362.309576 91.4113208 362.792709 92.1962264 362.671926 93.8264151 361.524483 95.2754717 361.222524 96.3622642 361.584875 98.5358491 361.947225 100.588679 361.041349 102.158491 360.558215 103.909434 359.954298 105.781132 360.618607 107.230189 360.980958 110.913208 361.947225 113.630189 361.826442 115.441509 352.224157 116.528302 341.655604 117.132075 333.985854 117.132075 333.563112 116.226415 331.811752 115.984906 330.241567 115.2 328.852557 112.966038 328.671382 110.792453 329.879217 109.041509 329.577258 108.196226 328.309032 106.867925 327.825898 104.875472 327.463547 100.769811 326.195321 99.2603774 321.9679 96.5433962 319.673014 93.2830189 317.619695 92.6792453 316.291077 90.9886792 314.358542 90.9886792 312.607182 88.9962264 312.305223 85.0716981 312.365615 82.7773585 313.271491 80.9056604 312.788357 78.9735849 311.278564 77.2830189 312.365615 74.0226415 315.505985 71.7283019 316.472252 70.5811321 316.351469 65.690566 316.472252 64 317.921654 62.309434"></polygon>
                    <polygon id="WV" fill="#21272F" fill-rule="nonzero" points="449.877584 149.916981 453.380305 146.29434 454.95049 145.811321 455.916757 144.90566 456.822633 143.577358 457.486942 143.758491 459.359086 143.637736 462.137106 141.464151 463.042982 141.162264 463.828074 141.766038 465.398259 142.490566 467.210011 144.301887 466.968444 146.898113 463.707291 145.328302 460.808487 144.241509 460.748096 147.803774 459.177911 151.245283 457.426551 152.69434 456.943417 154.083019 455.131665 154.384906 454.105005 159.275472 452.414037 159.396226 451.749728 158.792453 451.025027 157.584906 449.696409 157.886792 449.39445 160.966038 448.307399 164.045283 445.287813 170.686792 445.831338 171.532075 445.770947 172.739623 444.442329 174.249057 443.476061 174.007547 441.603917 175.396226 439.912949 174.913208 438.825898 177.871698 436.531012 178.475472 435.021219 177.690566 433.511425 178.837736 432.122416 179.260377 430.18988 178.777358 427.894995 176.060377 425.781284 174.732075 424.271491 173.222642 422.520131 170.988679 422.218172 169.6 420.527203 168.573585 420.164853 167.788679 420.04407 164.407547 420.225245 164.467925 421.674646 164.34717 422.761697 163.743396 422.761697 162.415094 423.788357 161.509434 423.848749 158.369811 424.392274 156.196226 425.056583 155.773585 425.29815 155.954717 425.902067 156.618868 426.928727 156.920755 427.593036 156.135849 426.989119 154.264151 426.989119 153.298113 428.861262 150.520755 429.585963 149.735849 430.793798 150.037736 432.363983 148.950943 434.236126 146.898113 435.685528 144.422642 435.806311 141.041509 436.10827 138.143396 436.10827 135.184906 435.443961 133.373585 435.987486 132.588679 436.47062 132.166038 439.067465 143.818868 441.664309 143.335849 448.428183 142.550943"></polygon>
                    <polygon id="WY" fill="#21272F" fill-rule="nonzero" points="204.747552 94.1283019 203.841676 109.464151 201.18444 136.030189 199.553863 135.849057 149.247552 130.354717 132.398259 128.543396 133.606094 121.298113 137.773123 96.5433962 140.068009 81.9320755 140.853101 75.1698113 169.961915 79.3962264 205.653428 83.3207547"></polygon>
                    <g id="DC" transform="translate(472.282916, 144.905660)" fill="#21272F" fill-rule="nonzero">
                        <polygon id="DC1" points="3.50272035 4.70943396 2.83841132 3.74339623 2.23449402 3.26037736 2.89880305 2.29433962 4.22742111 3.2"></polygon>
                    </g>
                    <ellipse id="Memphis" fill="#00FFB0" fill-rule="nonzero" cx="349" cy="214.999048" rx="4" ry="3.9990481"></ellipse>
                    <ellipse id="NYC" fill="#00FFB0" fill-rule="nonzero" cx="502" cy="116.999048" rx="4" ry="3.9990481"></ellipse>
                    <ellipse id="SLO" fill="#00FFB0" fill-rule="nonzero" cx="23" cy="180.999048" rx="4" ry="3.9990481"></ellipse>
                    <ellipse id="Jackson" fill="#00FFB0" fill-rule="nonzero" cx="348" cy="253.999048" rx="4" ry="3.9990481"></ellipse>
                    <path d="M352.367107,253.999048 C347.012249,241.768514 346.718088,228.768832 351.484626,215" id="Path" stroke="#00FFB0" stroke-width="2" transform="translate(350.242313, 234.499524) scale(-1, 1) translate(-350.242313, -234.499524) "></path>
                    <path d="M349,214.490566 C349,213.810184 303.311371,194.667818 192.890625,183.909434 C119.276794,176.737178 62.6465862,175.767049 23,180.999048" id="Path-2" stroke="#00FFB0" stroke-width="2"></path>
                    <path d="M22.1833515,180.999048 C123.199416,151.658931 201.52749,133.278116 257.167573,125.856604 C312.807657,118.435091 394.418465,115.482573 502,116.999048" id="Path-3" stroke="#00FFB0" stroke-width="2" stroke-dasharray="4,4"></path>
                </g>
            </g>
        </g>
    </g>
</svg>